<svg version="1.1" xmlns="http://www.w3.org/2000/svg">
	<symbol viewBox="0 0 14 14" fill="none" id="icon-phone">
		<path d="M9.02812 7.9602L9.02812 7.96021L11.985 9.28334C11.9851 9.28342 11.9853 9.2835 11.9855 9.28358C12.1535 9.35674 12.2935 9.48215 12.3846 9.6412C12.4758 9.80041 12.5131 9.98481 12.491 10.167L12.4909 10.168C12.3838 10.9803 11.9846 11.7259 11.3679 12.2655C10.7513 12.805 9.95943 13.1016 9.14011 13.1C9.14005 13.1 9.13998 13.1 9.13991 13.1L9.14011 13C4.30436 13 0.370613 9.06625 0.370613 4.23049L9.02812 7.9602ZM9.02812 7.9602L9.02699 7.95971C8.89707 7.90349 8.75519 7.88053 8.61417 7.89292C8.47346 7.90529 8.33805 7.95246 8.22011 8.03017M9.02812 7.9602L8.22011 8.03017M8.22011 8.03017C8.22037 8.03 8.22064 8.02983 8.2209 8.02967L8.27444 8.11413L8.21932 8.03069C8.21959 8.03051 8.21985 8.03034 8.22011 8.03017ZM3.41684 6.35712C3.33682 6.47958 3.28969 6.6206 3.28 6.76657C3.2703 6.91264 3.29842 7.05875 3.36164 7.19079L3.36199 7.19149C3.91626 8.32618 5.05518 9.45669 6.20205 10.0107L6.20283 10.0111C6.33577 10.0739 6.48271 10.1012 6.62935 10.0904C6.77598 10.0796 6.91732 10.031 7.0396 9.94931L7.0397 9.94946L7.04441 9.94589L7.06759 9.92835L7.06769 9.92848L7.07204 9.92478L8.62062 8.60758C8.63888 8.59757 8.65908 8.59156 8.67989 8.58998C8.70263 8.58826 8.72546 8.59189 8.74654 8.60056L11.7025 9.92546L11.7025 9.92549L11.705 9.92653C11.735 9.93901 11.7601 9.96085 11.7767 9.9888C11.793 10.0164 11.8001 10.0486 11.7969 10.0805C11.7114 10.7235 11.3948 11.3133 10.9062 11.74C10.4173 12.1669 9.78956 12.4011 9.14046 12.3989H9.14011C4.63646 12.3989 0.971727 8.73415 0.971728 4.23049L0.971726 4.23014C0.969478 3.58104 1.20372 2.95335 1.63065 2.4644C2.05673 1.97645 2.64561 1.66003 3.28758 1.57401C3.29245 1.57381 3.29733 1.57387 3.30219 1.57417L3.30219 1.57431L3.30754 1.57436C3.33725 1.57461 3.36621 1.58364 3.39079 1.60032C3.41537 1.617 3.43447 1.64057 3.44568 1.66808L3.44563 1.6681L3.44702 1.6712L4.76894 4.62314C4.778 4.64464 4.78195 4.66795 4.78046 4.69124C4.77911 4.71233 4.77334 4.73287 4.76356 4.75154L3.44233 6.3228L3.44225 6.32274L3.4396 6.32619C3.43906 6.3269 3.4383 6.32786 3.43738 6.32903C3.43277 6.33488 3.42403 6.34599 3.41684 6.35712ZM3.41684 6.35712C3.41689 6.35703 3.41695 6.35695 3.417 6.35686L3.5007 6.41159L3.41658 6.35752C3.41667 6.35738 3.41675 6.35725 3.41684 6.35712ZM3.44693 1.51757C3.48784 1.54532 3.51962 1.58456 3.53828 1.63033L3.27833 1.47436C3.28834 1.47374 3.29838 1.47374 3.3084 1.47436C3.35783 1.47478 3.40603 1.48982 3.44693 1.51757Z" fill="#002951" stroke="#002951" stroke-width="0.2"/>
	</symbol>
</svg>
